<svg id="visual" viewBox="0 0 900 600" width="900" height="600" xmlns="http://www.w3.org/2000/svg" xmlns:xlink="http://www.w3.org/1999/xlink" version="1.1"><rect x="0" y="0" width="900" height="600" fill="#0066FF"></rect><defs><linearGradient id="grad1_0" x1="33.3%" y1="0%" x2="100%" y2="100%"><stop offset="20%" stop-color="#0066ff" stop-opacity="1"></stop><stop offset="80%" stop-color="#0066ff" stop-opacity="1"></stop></linearGradient></defs><defs><linearGradient id="grad2_0" x1="0%" y1="0%" x2="66.7%" y2="100%"><stop offset="20%" stop-color="#0066ff" stop-opacity="1"></stop><stop offset="80%" stop-color="#0066ff" stop-opacity="1"></stop></linearGradient></defs><g transform="translate(900, 0)"><path d="M0 486.7C-50.1 448.8 -100.2 411 -163 393.6C-225.9 376.2 -301.5 379.3 -344.2 344.2C-386.9 309 -396.6 235.6 -414.8 171.8C-433.1 108.1 -459.9 54 -486.7 0L0 0Z" fill="#CCCCCC"></path></g><g transform="translate(0, 600)"><path d="M0 -486.7C51.5 -450.7 103 -414.6 164.2 -396.3C225.3 -378.1 296 -377.6 344.2 -344.2C392.3 -310.7 417.9 -244.3 437.9 -181.4C457.9 -118.5 472.3 -59.3 486.7 0L0 0Z" fill="#CCCCCC"></path></g></svg>