<svg id="visual" viewBox="0 0 900 600" width="900" height="600" xmlns="http://www.w3.org/2000/svg" xmlns:xlink="http://www.w3.org/1999/xlink" version="1.1"><g stroke-width="1" stroke-linejoin="bevel"><path d="M381 286L373 216L270 295Z" fill="#d0a1ac" stroke="#d0a1ac"></path><path d="M373 216L264 207L270 295Z" fill="#c93e71" stroke="#c93e71"></path><path d="M264 207L227 284L270 295Z" fill="#cebec1" stroke="#cebec1"></path><path d="M264 207L203 202L227 284Z" fill="#ce6384" stroke="#ce6384"></path><path d="M227 284L283 393L270 295Z" fill="#d0a1ac" stroke="#d0a1ac"></path><path d="M270 295L283 393L381 286Z" fill="#ce6384" stroke="#ce6384"></path><path d="M373 216L281 116L264 207Z" fill="#d192a2" stroke="#d192a2"></path><path d="M264 207L281 116L203 202Z" fill="#c93e71" stroke="#c93e71"></path><path d="M203 202L136 282L227 284Z" fill="#cf738e" stroke="#cf738e"></path><path d="M227 284L192 416L283 393Z" fill="#d08398" stroke="#d08398"></path><path d="M283 393L420 423L381 286Z" fill="#c62368" stroke="#c62368"></path><path d="M381 286L520 264L373 216Z" fill="#d08398" stroke="#d08398"></path><path d="M420 423L520 264L381 286Z" fill="#d0afb7" stroke="#d0afb7"></path><path d="M373 216L433 70L281 116Z" fill="#cebec1" stroke="#cebec1"></path><path d="M520 264L524 233L373 216Z" fill="#d0a1ac" stroke="#d0a1ac"></path><path d="M221 76L134 176L203 202Z" fill="#d0afb7" stroke="#d0afb7"></path><path d="M203 202L134 176L136 282Z" fill="#cccccc" stroke="#cccccc"></path><path d="M135 391L192 416L227 284Z" fill="#d08398" stroke="#d08398"></path><path d="M283 393L427 492L420 423Z" fill="#d192a2" stroke="#d192a2"></path><path d="M318 0L221 76L281 116Z" fill="#cccccc" stroke="#cccccc"></path><path d="M281 116L221 76L203 202Z" fill="#d0a1ac" stroke="#d0a1ac"></path><path d="M497 102L433 70L373 216Z" fill="#c93e71" stroke="#c93e71"></path><path d="M427 492L460 433L420 423Z" fill="#cebec1" stroke="#cebec1"></path><path d="M420 423L460 433L520 264Z" fill="#d0afb7" stroke="#d0afb7"></path><path d="M0 295L135 391L136 282Z" fill="#cccccc" stroke="#cccccc"></path><path d="M136 282L135 391L227 284Z" fill="#cebec1" stroke="#cebec1"></path><path d="M74 527L220 464L192 416Z" fill="#d0a1ac" stroke="#d0a1ac"></path><path d="M192 416L220 464L283 393Z" fill="#cccccc" stroke="#cccccc"></path><path d="M524 233L497 102L373 216Z" fill="#d0a1ac" stroke="#d0a1ac"></path><path d="M276 535L427 492L283 393Z" fill="#d08398" stroke="#d08398"></path><path d="M391 0L318 0L433 70Z" fill="#c62368" stroke="#c62368"></path><path d="M433 70L318 0L281 116Z" fill="#cc527b" stroke="#cc527b"></path><path d="M492 0L391 0L433 70Z" fill="#d0a1ac" stroke="#d0a1ac"></path><path d="M318 0L228 0L221 76Z" fill="#ce6384" stroke="#ce6384"></path><path d="M221 76L61 85L134 176Z" fill="#cc527b" stroke="#cc527b"></path><path d="M524 233L570 133L497 102Z" fill="#d08398" stroke="#d08398"></path><path d="M497 102L492 0L433 70Z" fill="#d192a2" stroke="#d192a2"></path><path d="M602 232L570 133L524 233Z" fill="#cc527b" stroke="#cc527b"></path><path d="M602 232L524 233L520 264Z" fill="#cccccc" stroke="#cccccc"></path><path d="M630 331L520 264L608 400Z" fill="#d0afb7" stroke="#d0afb7"></path><path d="M630 331L602 232L520 264Z" fill="#c93e71" stroke="#c93e71"></path><path d="M268 600L276 535L236 600Z" fill="#d08398" stroke="#d08398"></path><path d="M220 464L276 535L283 393Z" fill="#ce6384" stroke="#ce6384"></path><path d="M465 600L516 473L427 492Z" fill="#d08398" stroke="#d08398"></path><path d="M427 492L516 473L460 433Z" fill="#d0afb7" stroke="#d0afb7"></path><path d="M595 0L492 0L497 102Z" fill="#d0a1ac" stroke="#d0a1ac"></path><path d="M88 0L61 85L221 76Z" fill="#d0a1ac" stroke="#d0a1ac"></path><path d="M0 187L0 295L136 282Z" fill="#d08398" stroke="#d08398"></path><path d="M608 400L520 264L460 433Z" fill="#cccccc" stroke="#cccccc"></path><path d="M516 473L608 400L460 433Z" fill="#d0a1ac" stroke="#d0a1ac"></path><path d="M0 187L136 282L134 176Z" fill="#d0a1ac" stroke="#d0a1ac"></path><path d="M236 600L276 535L220 464Z" fill="#c62368" stroke="#c62368"></path><path d="M61 85L0 187L134 176Z" fill="#c62368" stroke="#c62368"></path><path d="M236 600L220 464L74 527Z" fill="#c93e71" stroke="#c93e71"></path><path d="M276 535L431 600L427 492Z" fill="#c62368" stroke="#c62368"></path><path d="M228 0L88 0L221 76Z" fill="#cf738e" stroke="#cf738e"></path><path d="M61 85L0 123L0 187Z" fill="#c93e71" stroke="#c93e71"></path><path d="M0 0L0 123L61 85Z" fill="#c93e71" stroke="#c93e71"></path><path d="M74 527L192 416L135 391Z" fill="#d08398" stroke="#d08398"></path><path d="M268 600L431 600L276 535Z" fill="#cc527b" stroke="#cc527b"></path><path d="M516 473L598 503L608 400Z" fill="#cebec1" stroke="#cebec1"></path><path d="M0 295L0 426L135 391Z" fill="#cc527b" stroke="#cc527b"></path><path d="M0 426L74 527L135 391Z" fill="#cebec1" stroke="#cebec1"></path><path d="M465 600L598 503L516 473Z" fill="#cccccc" stroke="#cccccc"></path><path d="M698 434L734 289L630 331Z" fill="#d0afb7" stroke="#d0afb7"></path><path d="M431 600L465 600L427 492Z" fill="#d0afb7" stroke="#d0afb7"></path><path d="M711 105L595 0L570 133Z" fill="#cc527b" stroke="#cc527b"></path><path d="M570 133L595 0L497 102Z" fill="#d192a2" stroke="#d192a2"></path><path d="M725 162L570 133L602 232Z" fill="#d0afb7" stroke="#d0afb7"></path><path d="M0 426L0 483L74 527Z" fill="#cccccc" stroke="#cccccc"></path><path d="M698 434L630 331L608 400Z" fill="#d08398" stroke="#d08398"></path><path d="M630 331L734 289L602 232Z" fill="#ce6384" stroke="#ce6384"></path><path d="M88 0L0 0L61 85Z" fill="#c62368" stroke="#c62368"></path><path d="M734 289L725 162L602 232Z" fill="#d08398" stroke="#d08398"></path><path d="M729 536L698 434L598 503Z" fill="#d0a1ac" stroke="#d0a1ac"></path><path d="M598 503L698 434L608 400Z" fill="#d08398" stroke="#d08398"></path><path d="M725 162L711 105L570 133Z" fill="#ce6384" stroke="#ce6384"></path><path d="M0 600L73 600L74 527Z" fill="#d0a1ac" stroke="#d0a1ac"></path><path d="M74 527L73 600L236 600Z" fill="#d0afb7" stroke="#d0afb7"></path><path d="M465 600L635 600L598 503Z" fill="#c93e71" stroke="#c93e71"></path><path d="M734 289L803 194L725 162Z" fill="#cf738e" stroke="#cf738e"></path><path d="M698 434L776 376L734 289Z" fill="#c62368" stroke="#c62368"></path><path d="M772 529L776 376L698 434Z" fill="#c62368" stroke="#c62368"></path><path d="M0 483L0 600L74 527Z" fill="#cebec1" stroke="#cebec1"></path><path d="M820 64L730 0L711 105Z" fill="#cf738e" stroke="#cf738e"></path><path d="M711 105L730 0L595 0Z" fill="#cccccc" stroke="#cccccc"></path><path d="M820 64L711 105L725 162Z" fill="#d0a1ac" stroke="#d0a1ac"></path><path d="M839 300L803 194L734 289Z" fill="#c93e71" stroke="#c93e71"></path><path d="M635 600L729 536L598 503Z" fill="#d192a2" stroke="#d192a2"></path><path d="M635 600L706 600L729 536Z" fill="#c62368" stroke="#c62368"></path><path d="M900 289L839 300L900 420Z" fill="#c93e71" stroke="#c93e71"></path><path d="M776 376L839 300L734 289Z" fill="#cf738e" stroke="#cf738e"></path><path d="M772 529L698 434L729 536Z" fill="#d192a2" stroke="#d192a2"></path><path d="M706 600L772 529L729 536Z" fill="#cf738e" stroke="#cf738e"></path><path d="M803 194L820 64L725 162Z" fill="#d0a1ac" stroke="#d0a1ac"></path><path d="M900 136L820 64L803 194Z" fill="#cc527b" stroke="#cc527b"></path><path d="M820 64L795 0L730 0Z" fill="#c93e71" stroke="#c93e71"></path><path d="M900 289L900 236L839 300Z" fill="#d08398" stroke="#d08398"></path><path d="M839 300L900 236L803 194Z" fill="#cc527b" stroke="#cc527b"></path><path d="M820 64L900 0L795 0Z" fill="#d0a1ac" stroke="#d0a1ac"></path><path d="M900 420L839 300L776 376Z" fill="#c62368" stroke="#c62368"></path><path d="M900 236L900 136L803 194Z" fill="#d08398" stroke="#d08398"></path><path d="M900 524L900 420L772 529Z" fill="#cf738e" stroke="#cf738e"></path><path d="M772 529L900 420L776 376Z" fill="#cc527b" stroke="#cc527b"></path><path d="M706 600L820 600L772 529Z" fill="#c93e71" stroke="#c93e71"></path><path d="M900 136L900 0L820 64Z" fill="#cf738e" stroke="#cf738e"></path><path d="M820 600L900 524L772 529Z" fill="#cf738e" stroke="#cf738e"></path><path d="M820 600L900 600L900 524Z" fill="#cebec1" stroke="#cebec1"></path></g></svg>