<svg id="visual" viewBox="0 0 900 600" width="900" height="600" xmlns="http://www.w3.org/2000/svg" xmlns:xlink="http://www.w3.org/1999/xlink" version="1.1"><rect width="900" height="600" fill="#001122"></rect><g><g transform="translate(381 466)"><path d="M0 -144.1L124.8 -72L124.8 72L0 144.1L-124.8 72L-124.8 -72Z" stroke="#0066FF" fill="none" stroke-width="2"></path></g><g transform="translate(781 68)"><path d="M0 -87L75.3 -43.5L75.3 43.5L0 87L-75.3 43.5L-75.3 -43.5Z" stroke="#0066FF" fill="none" stroke-width="2"></path></g><g transform="translate(479 84)"><path d="M0 -122L105.7 -61L105.7 61L0 122L-105.7 61L-105.7 -61Z" stroke="#0066FF" fill="none" stroke-width="2"></path></g><g transform="translate(95 271)"><path d="M0 -61L52.8 -30.5L52.8 30.5L0 61L-52.8 30.5L-52.8 -30.5Z" stroke="#0066FF" fill="none" stroke-width="2"></path></g><g transform="translate(886 343)"><path d="M0 -95L82.3 -47.5L82.3 47.5L0 95L-82.3 47.5L-82.3 -47.5Z" stroke="#0066FF" fill="none" stroke-width="2"></path></g></g></svg>