<svg id="visual" viewBox="0 0 450 900" width="450" height="900" xmlns="http://www.w3.org/2000/svg" xmlns:xlink="http://www.w3.org/1999/xlink" version="1.1"><path d="M0 136L41 136L41 343L82 343L82 226L123 226L123 181L164 181L164 145L205 145L205 316L245 316L245 343L286 343L286 199L327 199L327 190L368 190L368 244L409 244L409 235L450 235L450 145L450 0L450 0L409 0L409 0L368 0L368 0L327 0L327 0L286 0L286 0L245 0L245 0L205 0L205 0L164 0L164 0L123 0L123 0L82 0L82 0L41 0L41 0L0 0Z" fill="#cccccc"></path><path d="M0 307L41 307L41 550L82 550L82 298L123 298L123 352L164 352L164 325L205 325L205 487L245 487L245 487L286 487L286 406L327 406L327 424L368 424L368 388L409 388L409 442L450 442L450 307L450 143L450 233L409 233L409 242L368 242L368 188L327 188L327 197L286 197L286 341L245 341L245 314L205 314L205 143L164 143L164 179L123 179L123 224L82 224L82 341L41 341L41 134L0 134Z" fill="#b2b1da"></path><path d="M0 649L41 649L41 730L82 730L82 640L123 640L123 694L164 694L164 649L205 649L205 595L245 595L245 631L286 631L286 604L327 604L327 748L368 748L368 703L409 703L409 640L450 640L450 577L450 305L450 440L409 440L409 386L368 386L368 422L327 422L327 404L286 404L286 485L245 485L245 485L205 485L205 323L164 323L164 350L123 350L123 296L82 296L82 548L41 548L41 305L0 305Z" fill="#9397e7"></path><path d="M0 757L41 757L41 829L82 829L82 775L123 775L123 802L164 802L164 838L205 838L205 757L245 757L245 784L286 784L286 757L327 757L327 820L368 820L368 829L409 829L409 811L450 811L450 757L450 575L450 638L409 638L409 701L368 701L368 746L327 746L327 602L286 602L286 629L245 629L245 593L205 593L205 647L164 647L164 692L123 692L123 638L82 638L82 728L41 728L41 647L0 647Z" fill="#6a7ef3"></path><path d="M0 901L41 901L41 901L82 901L82 901L123 901L123 901L164 901L164 901L205 901L205 901L245 901L245 901L286 901L286 901L327 901L327 901L368 901L368 901L409 901L409 901L450 901L450 901L450 755L450 809L409 809L409 827L368 827L368 818L327 818L327 755L286 755L286 782L245 782L245 755L205 755L205 836L164 836L164 800L123 800L123 773L82 773L82 827L41 827L41 755L0 755Z" fill="#0066ff"></path></svg>