<svg id="visual" viewBox="0 0 540 960" width="540" height="960" xmlns="http://www.w3.org/2000/svg" xmlns:xlink="http://www.w3.org/1999/xlink" version="1.1"><path d="M0 145L49 145L49 366L98 366L98 241L147 241L147 193L196 193L196 155L245 155L245 337L295 337L295 366L344 366L344 212L393 212L393 203L442 203L442 260L491 260L491 251L540 251L540 155L540 0L540 0L491 0L491 0L442 0L442 0L393 0L393 0L344 0L344 0L295 0L295 0L245 0L245 0L196 0L196 0L147 0L147 0L98 0L98 0L49 0L49 0L0 0Z" fill="#cccccc"></path><path d="M0 327L49 327L49 587L98 587L98 318L147 318L147 375L196 375L196 347L245 347L245 519L295 519L295 519L344 519L344 433L393 433L393 452L442 452L442 414L491 414L491 471L540 471L540 327L540 153L540 249L491 249L491 258L442 258L442 201L393 201L393 210L344 210L344 364L295 364L295 335L245 335L245 153L196 153L196 191L147 191L147 239L98 239L98 364L49 364L49 143L0 143Z" fill="#b2b1da"></path><path d="M0 692L49 692L49 779L98 779L98 683L147 683L147 740L196 740L196 692L245 692L245 635L295 635L295 673L344 673L344 644L393 644L393 798L442 798L442 750L491 750L491 683L540 683L540 615L540 325L540 469L491 469L491 412L442 412L442 450L393 450L393 431L344 431L344 517L295 517L295 517L245 517L245 345L196 345L196 373L147 373L147 316L98 316L98 585L49 585L49 325L0 325Z" fill="#9397e7"></path><path d="M0 807L49 807L49 884L98 884L98 827L147 827L147 855L196 855L196 894L245 894L245 807L295 807L295 836L344 836L344 807L393 807L393 875L442 875L442 884L491 884L491 865L540 865L540 807L540 613L540 681L491 681L491 748L442 748L442 796L393 796L393 642L344 642L344 671L295 671L295 633L245 633L245 690L196 690L196 738L147 738L147 681L98 681L98 777L49 777L49 690L0 690Z" fill="#6a7ef3"></path><path d="M0 961L49 961L49 961L98 961L98 961L147 961L147 961L196 961L196 961L245 961L245 961L295 961L295 961L344 961L344 961L393 961L393 961L442 961L442 961L491 961L491 961L540 961L540 961L540 805L540 863L491 863L491 882L442 882L442 873L393 873L393 805L344 805L344 834L295 834L295 805L245 805L245 892L196 892L196 853L147 853L147 825L98 825L98 882L49 882L49 805L0 805Z" fill="#0066ff"></path></svg>