<svg id="visual" viewBox="0 0 900 600" width="900" height="600" xmlns="http://www.w3.org/2000/svg" xmlns:xlink="http://www.w3.org/1999/xlink" version="1.1"><path d="M0 91L82 91L82 229L164 229L164 151L245 151L245 121L327 121L327 97L409 97L409 211L491 211L491 229L573 229L573 133L655 133L655 127L736 127L736 163L818 163L818 157L900 157L900 97L900 0L900 0L818 0L818 0L736 0L736 0L655 0L655 0L573 0L573 0L491 0L491 0L409 0L409 0L327 0L327 0L245 0L245 0L164 0L164 0L82 0L82 0L0 0Z" fill="#cccccc"></path><path d="M0 205L82 205L82 367L164 367L164 199L245 199L245 235L327 235L327 217L409 217L409 325L491 325L491 325L573 325L573 271L655 271L655 283L736 283L736 259L818 259L818 295L900 295L900 205L900 95L900 155L818 155L818 161L736 161L736 125L655 125L655 131L573 131L573 227L491 227L491 209L409 209L409 95L327 95L327 119L245 119L245 149L164 149L164 227L82 227L82 89L0 89Z" fill="#b2b1da"></path><path d="M0 433L82 433L82 487L164 487L164 427L245 427L245 463L327 463L327 433L409 433L409 397L491 397L491 421L573 421L573 403L655 403L655 499L736 499L736 469L818 469L818 427L900 427L900 385L900 203L900 293L818 293L818 257L736 257L736 281L655 281L655 269L573 269L573 323L491 323L491 323L409 323L409 215L327 215L327 233L245 233L245 197L164 197L164 365L82 365L82 203L0 203Z" fill="#9397e7"></path><path d="M0 505L82 505L82 553L164 553L164 517L245 517L245 535L327 535L327 559L409 559L409 505L491 505L491 523L573 523L573 505L655 505L655 547L736 547L736 553L818 553L818 541L900 541L900 505L900 383L900 425L818 425L818 467L736 467L736 497L655 497L655 401L573 401L573 419L491 419L491 395L409 395L409 431L327 431L327 461L245 461L245 425L164 425L164 485L82 485L82 431L0 431Z" fill="#6a7ef3"></path><path d="M0 601L82 601L82 601L164 601L164 601L245 601L245 601L327 601L327 601L409 601L409 601L491 601L491 601L573 601L573 601L655 601L655 601L736 601L736 601L818 601L818 601L900 601L900 601L900 503L900 539L818 539L818 551L736 551L736 545L655 545L655 503L573 503L573 521L491 521L491 503L409 503L409 557L327 557L327 533L245 533L245 515L164 515L164 551L82 551L82 503L0 503Z" fill="#0066ff"></path></svg>